<?xml version="1.0" standalone="no"?>
<!DOCTYPE svg PUBLIC "-//W3C//DTD SVG 20010904//EN"
 "http://www.w3.org/TR/2001/REC-SVG-20010904/DTD/svg10.dtd">
<svg version="1.0" xmlns="http://www.w3.org/2000/svg"
 width="512.000000pt" height="512.000000pt" viewBox="0 0 512.000000 512.000000"
 preserveAspectRatio="xMidYMid meet">
<metadata>
Created by potrace 1.14, written by Peter Selinger 2001-2017
</metadata>
<g transform="translate(0.000000,512.000000) scale(0.100000,-0.100000)"
fill="#000000" stroke="none">
<path d="M2398 5115 c-2 -1 -40 -6 -85 -9 -46 -4 -91 -9 -100 -10 -10 -2 -52
-9 -93 -16 -157 -25 -376 -88 -555 -162 -115 -47 -346 -170 -388 -206 -16 -14
-23 -14 -80 5 -55 19 -404 145 -697 253 -225 83 -387 140 -394 140 -9 0 -2
-462 7 -476 3 -5 8 -31 11 -59 27 -201 127 -438 268 -633 l60 -83 -65 -127
c-155 -302 -241 -597 -275 -937 -4 -38 -7 -425 -7 -860 l0 -790 110 -28 c1038
-261 1728 -562 2342 -1024 l123 -92 127 95 c626 467 1298 768 2258 1011 l150
38 0 785 c0 691 -5 910 -20 985 -3 11 -6 34 -9 50 -38 251 -131 531 -258 776
l-60 118 49 68 c68 91 98 141 148 242 39 79 99 239 109 293 2 13 7 34 10 48 6
24 12 56 21 110 9 51 17 490 9 490 -9 0 -84 -26 -119 -41 -11 -4 -177 -65
-370 -134 -192 -70 -418 -152 -502 -182 l-152 -56 -93 56 c-306 181 -650 302
-973 342 -28 4 -64 8 -80 11 -34 5 -422 14 -427 9z m407 -408 c11 -3 40 -8 65
-11 25 -3 56 -8 70 -11 14 -3 41 -8 60 -11 256 -45 594 -196 841 -375 l68 -50
381 139 382 139 -6 -29 c-12 -59 -77 -192 -140 -287 -124 -187 -257 -321 -611
-616 -427 -357 -544 -469 -756 -723 -42 -50 -142 -206 -234 -367 -54 -93 -107
-186 -119 -206 -12 -20 -70 -120 -130 -223 -59 -103 -113 -185 -118 -184 -5 2
-22 26 -38 53 -15 28 -95 165 -177 305 -82 140 -167 287 -188 325 -38 71 -146
236 -187 289 -58 72 -197 227 -257 286 -125 122 -215 201 -521 457 -443 370
-639 603 -729 865 l-20 57 112 -41 c62 -22 126 -44 142 -50 17 -5 39 -14 50
-18 11 -5 110 -41 220 -80 110 -39 210 -76 222 -82 19 -9 31 -4 90 38 37 27
95 67 128 88 75 49 323 176 345 176 9 0 20 4 26 9 21 19 299 100 404 117 14 2
34 6 45 8 11 3 56 8 100 11 44 4 81 9 83 10 6 5 377 -2 397 -8z m-2075 -1234
c19 -18 81 -70 137 -115 56 -46 102 -86 102 -91 1 -4 -18 -31 -42 -60 -82
-100 -149 -247 -165 -361 -9 -63 -8 -218 1 -270 28 -152 107 -297 226 -417
160 -160 331 -232 551 -233 165 -1 267 26 397 102 28 17 53 29 55 26 3 -2 130
-220 284 -484 153 -264 281 -479 284 -480 3 0 130 216 284 480 153 264 281
481 283 484 3 2 28 -9 56 -26 125 -74 260 -107 415 -103 215 7 392 85 543 242
115 119 169 222 216 408 12 47 10 228 -3 290 -27 129 -85 249 -167 349 l-41
48 35 32 c19 17 59 51 89 76 50 41 128 108 140 120 3 3 20 18 37 34 l32 29 37
-79 c81 -177 137 -356 175 -570 21 -112 22 -156 25 -780 l4 -662 -28 -10 c-15
-6 -93 -29 -173 -51 -311 -87 -726 -237 -1000 -362 -278 -127 -602 -308 -832
-465 l-107 -74 -110 75 c-60 41 -114 75 -119 75 -5 0 -11 4 -13 8 -1 4 -61 42
-133 84 -454 266 -963 476 -1580 653 l-220 63 0 618 c0 341 3 653 7 694 21
229 88 478 188 695 l41 88 27 -24 c14 -13 42 -39 62 -56z m3236 -785 c-19
-264 -307 -440 -544 -333 -101 45 -101 47 -32 151 33 49 72 104 88 123 l28 34
50 -28 c42 -25 60 -29 124 -29 57 0 85 5 115 21 73 39 126 109 141 188 l7 40
14 -50 c9 -31 12 -76 9 -117z m-2780 117 c12 -70 68 -141 139 -178 30 -16 58
-22 115 -22 64 0 82 4 123 28 26 15 52 25 57 22 9 -5 111 -149 154 -217 l17
-26 -43 -30 c-65 -44 -122 -59 -213 -57 -150 4 -277 89 -346 230 -29 61 -33
80 -34 150 0 112 18 171 31 100z"/>
<path d="M1890 4187 c-148 -65 -300 -149 -300 -166 0 -4 12 -14 28 -23 15 -9
77 -56 137 -103 240 -187 463 -408 724 -718 40 -48 77 -87 81 -87 4 0 29 26
56 58 27 31 51 59 54 62 3 3 30 34 60 70 140 166 366 393 530 531 81 68 218
172 248 188 32 17 28 25 -25 59 -95 59 -312 162 -342 162 -5 0 -45 -28 -87
-62 -120 -95 -152 -124 -346 -316 l-148 -146 -156 155 c-85 85 -161 159 -167
164 -7 6 -41 35 -77 65 -36 30 -67 57 -70 60 -27 27 -101 80 -112 80 -7 0 -47
-15 -88 -33z"/>
</g>
</svg>
